<?xml version="1.0" standalone="no"?>
<!DOCTYPE svg PUBLIC "-//W3C//DTD SVG 20010904//EN"
 "http://www.w3.org/TR/2001/REC-SVG-20010904/DTD/svg10.dtd">
<svg version="1.0" xmlns="http://www.w3.org/2000/svg"
 width="500.000000pt" height="500.000000pt" viewBox="0 0 500.000000 500.000000"
 preserveAspectRatio="xMidYMid meet">
<metadata>
Created by potrace 1.11, written by Peter Selinger 2001-2013
</metadata>
<g transform="translate(0.000000,500.000000) scale(0.100000,-0.100000)"
fill="#000000" stroke="none">
<path d="M0 2500 l0 -2500 1199 0 1199 0 6 31 c14 72 4 273 -19 360 -6 24 -2
28 44 47 52 23 85 19 121 -13 26 -23 182 -102 238 -120 73 -23 82 -35 82 -105
0 -32 -4 -61 -8 -64 -5 -3 -33 1 -62 9 -30 8 -56 13 -58 10 -4 -4 66 -25 85
-25 6 0 25 -11 41 -25 27 -22 29 -30 25 -65 l-6 -40 1057 0 1056 0 0 2500 0
2500 -1239 0 -1238 0 -7 -92 c-3 -50 -6 -305 -6 -566 l0 -474 48 -45 c66 -64
150 -117 218 -137 33 -10 89 -27 125 -38 83 -25 183 -80 253 -138 57 -48 74
-81 112 -220 23 -83 26 -375 5 -460 -34 -137 -104 -269 -247 -467 -47 -64 -74
-111 -74 -127 0 -14 2 -26 5 -26 2 0 37 19 78 43 63 38 131 67 113 50 -3 -4
36 -27 86 -52 147 -73 251 -158 334 -271 58 -79 127 -208 118 -221 -4 -7 -3
-9 3 -6 11 7 26 -19 19 -32 -3 -4 -29 -18 -58 -31 -29 -14 -55 -27 -58 -30
-19 -22 -72 -50 -81 -44 -7 4 -9 3 -6 -3 3 -5 -36 -38 -86 -73 -55 -38 -147
-119 -226 -199 -74 -75 -132 -130 -128 -124 4 6 3 14 -2 18 -6 3 -8 -5 -6 -17
3 -15 -6 -35 -25 -58 -16 -19 -30 -30 -30 -24 0 6 9 21 20 34 11 13 20 28 20
33 0 6 -11 -4 -25 -23 -14 -19 -23 -40 -20 -47 2 -7 -18 -48 -46 -90 -53 -81
-70 -103 -50 -66 6 13 8 23 4 23 -4 0 2 7 13 16 18 15 18 15 0 10 -15 -5 -17
-4 -8 7 7 8 8 18 4 22 -4 5 -2 5 5 1 8 -4 11 1 10 16 -4 47 15 158 26 151 6
-3 7 -1 3 5 -4 7 -16 12 -27 12 -11 0 -18 4 -15 8 3 5 -7 7 -22 5 -15 -2 -58
5 -97 15 l-70 19 3 61 4 62 -71 0 -71 0 0 249 c0 270 2 261 -56 261 -24 0 -24
1 -24 106 l0 105 36 15 c33 14 163 130 153 137 -2 1 -46 16 -96 32 l-93 29 -2
630 -3 631 -5 -847 c-4 -728 -7 -846 -19 -839 -12 8 -13 203 -3 1413 7 771 15
1463 18 1536 l6 132 -1251 0 -1251 0 0 -2500z m3634 2120 c94 -106 117 -254
70 -470 -5 -24 -3 -26 36 -28 92 -6 227 -82 298 -168 40 -47 85 -137 80 -158
-3 -14 -6 -14 -33 0 -38 21 -128 22 -175 2 l-34 -14 46 -23 c93 -45 165 -144
183 -251 14 -81 5 -230 -13 -230 -4 0 -23 23 -42 51 -44 65 -83 85 -177 92
-18 1 -24 9 -28 37 -21 130 -56 209 -131 289 -50 55 -54 63 -74 154 -35 163
-101 333 -162 420 l-20 27 36 48 c43 59 96 169 96 199 0 12 -4 33 -10 47 -15
40 4 31 54 -24z m-1566 -592 c42 -17 124 -57 182 -89 58 -31 124 -63 148 -70
l44 -13 -6 -150 c-3 -83 -8 -392 -11 -686 -3 -294 -8 -568 -11 -607 -6 -65 -9
-73 -28 -74 -20 -2 -20 -2 2 -6 18 -4 22 -11 22 -39 0 -39 1 -38 -112 -27 -73
6 -87 17 -36 27 17 3 29 8 27 10 -2 2 -30 -2 -62 -8 l-58 -12 35 -12 c19 -7
73 -16 120 -19 l86 -6 0 -55 0 -54 -32 6 c-24 4 -29 3 -18 -4 8 -5 23 -10 33
-10 15 0 17 -12 17 -105 0 -104 0 -105 -24 -105 -58 0 -56 9 -56 -261 l0 -249
-60 0 -60 0 6 -59 7 -58 -73 -17 c-40 -9 -78 -16 -85 -16 -33 0 -190 246 -230
360 -13 37 -13 49 5 124 29 120 58 325 64 447 l5 106 -61 82 c-119 160 -213
351 -243 494 -4 20 -11 27 -29 27 -35 0 -79 56 -143 183 -63 126 -93 206 -93
249 0 16 7 61 16 101 13 57 24 79 52 107 l36 35 12 -80 c18 -118 30 -165 82
-320 l47 -140 7 75 c3 41 12 131 18 200 15 163 41 290 88 431 103 304 182 365
370 287z m802 -3118 c-21 -41 -35 -54 -23 -22 8 21 34 62 39 62 3 0 -5 -18
-16 -40z m-49 -97 c-12 -20 -14 -14 -5 12 4 9 9 14 11 11 3 -2 0 -13 -6 -23z
m-58 -138 c-3 -9 -8 -14 -10 -11 -3 3 -2 9 2 15 9 16 15 13 8 -4z m-22 -52
c-12 -20 -14 -14 -5 12 4 9 9 14 11 11 3 -2 0 -13 -6 -23z"/>
<path d="M1895 3530 c-49 -19 -208 -120 -201 -128 2 -2 21 1 43 7 110 31 250
2 395 -81 92 -52 138 -65 185 -53 l28 7 -36 19 c-20 10 -83 62 -140 115 -107
98 -161 134 -201 134 -13 -1 -45 -10 -73 -20z"/>
<path d="M1740 3179 c70 -89 139 -150 207 -181 58 -28 80 -32 158 -34 l90 -3
-81 9 c-88 9 -138 26 -198 68 -41 28 -99 108 -90 123 3 5 27 9 54 9 l50 0 -7
-45 c-5 -41 -3 -47 30 -80 29 -29 42 -35 77 -35 36 0 48 6 75 34 l32 35 35
-37 c20 -20 40 -46 46 -57 8 -15 11 -16 12 -5 0 31 -66 125 -115 162 -70 53
-128 69 -279 75 l-130 6 34 -44z m238 -52 c2 -12 -3 -17 -17 -17 -12 0 -21 6
-21 13 0 31 32 34 38 4z"/>
<path d="M2338 2323 c7 -3 16 -2 19 1 4 3 -2 6 -13 5 -11 0 -14 -3 -6 -6z"/>
<path d="M2249 2217 c15 -19 71 -61 71 -54 0 2 -19 19 -42 37 -24 19 -37 26
-29 17z"/>
<path d="M2503 3655 c0 -27 2 -38 4 -22 2 15 2 37 0 50 -2 12 -4 0 -4 -28z"/>
<path d="M2863 3536 c-17 -8 -78 -58 -135 -111 -56 -53 -122 -106 -145 -118
-48 -24 -41 -37 19 -37 27 0 71 17 150 59 62 32 137 66 167 75 61 18 178 21
230 6 19 -5 36 -8 39 -6 5 6 -104 79 -165 109 -66 34 -119 41 -160 23z"/>
<path d="M2840 3307 c-51 -24 -89 -59 -129 -118 -23 -34 -38 -66 -35 -71 4 -6
1 -14 -6 -18 -6 -4 -14 -36 -16 -71 -6 -69 -8 -68 41 -8 43 52 51 54 82 19 20
-22 40 -33 70 -37 39 -5 46 -2 79 31 34 34 36 40 32 86 l-5 50 53 0 c39 0 54
-4 54 -14 0 -24 -45 -80 -94 -117 -56 -43 -105 -60 -201 -69 l-70 -7 57 -2
c120 -3 226 37 313 116 54 50 125 133 125 146 0 5 -18 6 -39 2 -40 -7 -69 5
-115 47 -10 9 -25 14 -34 11 -9 -4 -13 -2 -9 4 17 28 -102 43 -153 20z m-44
-59 c4 -7 3 -8 -4 -4 -7 4 -12 2 -12 -5 0 -7 -3 -10 -6 -6 -6 5 3 27 11 27 2
0 7 -5 11 -12z m104 -7 c0 -6 -4 -12 -8 -15 -5 -3 -9 1 -9 9 0 8 4 15 9 15 4
0 8 -4 8 -9z m167 -17 c-3 -3 -12 -4 -19 -1 -8 3 -5 6 6 6 11 1 17 -2 13 -5z
m-203 -13 c3 -5 -1 -11 -9 -15 -15 -6 -29 7 -18 18 9 9 21 8 27 -3z m84 -84
c4 -20 -25 -34 -40 -19 -15 15 -1 44 19 40 10 -2 19 -11 21 -21z m-252 -49 c4
-7 3 -8 -4 -4 -7 4 -12 0 -12 -10 0 -10 -3 -15 -6 -11 -7 6 2 37 10 37 3 0 8
-5 12 -12z"/>
<path d="M3087 1273 c-4 -3 -7 -11 -7 -17 0 -6 5 -5 12 2 6 6 9 14 7 17 -3 3
-9 2 -12 -2z"/>
<path d="M2960 1109 c0 -5 5 -7 10 -4 6 3 10 8 10 11 0 2 -4 4 -10 4 -5 0 -10
-5 -10 -11z"/>
<path d="M2940 1060 c-6 -11 -8 -20 -6 -20 3 0 10 9 16 20 6 11 8 20 6 20 -3
0 -10 -9 -16 -20z"/>
<path d="M2670 182 c8 -5 26 -13 40 -16 17 -5 20 -4 10 2 -8 5 -26 13 -40 16
-17 5 -20 4 -10 -2z"/>
<path d="M2570 51 c0 -5 9 -12 19 -16 11 -3 22 -12 25 -20 3 -8 11 -15 18 -15
6 0 -1 13 -17 30 -29 30 -45 38 -45 21z"/>
</g>
</svg>
